<svg xmlns="http://www.w3.org/2000/svg" width="80" height="80" viewBox="0 0 80 80">
    <g fill="none" fill-rule="evenodd">
        <path fill="#ffc107" d="M53.859 79.075c13.926 0 25.216-11.29 25.216-25.216 0-13.927-11.29-25.217-25.216-25.217-13.927 0-25.217 11.29-25.217 25.217 0 13.926 11.29 25.216 25.217 25.216z" opacity=".399"/>
        <path fill="#ffc107" fill-rule="nonzero" d="M30.208 0c.466 0 .915.164 1.269.461l.128.118 17.2 17.199c.328.33.53.763.57 1.223l.008.174v17.982c1.427-.38 2.927-.584 4.474-.584 9.545 0 17.284 7.738 17.284 17.284 0 9.545-7.739 17.284-17.284 17.284-7.696 0-14.218-5.03-16.456-11.982v.1H8.889c-4.822 0-8.747-3.839-8.885-8.627L0 50.37V8.89C0 4.067 3.839.142 8.627.004L8.889 0h21.32zm23.649 38.548c-8.455 0-15.309 6.854-15.309 15.309 0 8.455 6.854 15.308 15.309 15.308 8.455 0 15.308-6.853 15.308-15.308s-6.853-15.309-15.308-15.309zm.263 3.921c.518 0 .944.392.999.895l.006.11v9.642h9.642c.554 0 1.004.45 1.004 1.004 0 .518-.392.944-.895.999l-.11.006h-9.641v9.642c0 .554-.45 1.004-1.005 1.004-.518 0-.944-.392-.998-.895l-.006-.11v-9.641h-9.642c-.555 0-1.005-.45-1.005-1.005 0-.518.392-.944.895-.998l.11-.006h9.642v-9.642c0-.555.45-1.005 1.004-1.005zM29.63 1.975H8.889c-3.739 0-6.784 2.968-6.91 6.676l-.004.238V50.37c0 3.74 2.968 6.785 6.676 6.91l.238.004h28.024c-.223-1.107-.34-2.254-.34-3.427 0-7.266 4.484-13.485 10.835-16.041V19.753h-8.89c-4.821 0-8.746-3.839-8.885-8.627l-.003-.262V1.975zm5.225 24.226c.504-1.86 2.306-3.058 4.215-2.804 1.909.254 3.335 1.882 3.335 3.808s-1.426 3.554-3.335 3.808c-1.843.245-3.587-.864-4.158-2.614l-.057-.19h-4.283c1.626 1.112 2.901 2.66 3.68 4.462l.141.341h2.561c.518 0 .944.392.999.895l.006.11v5.674c0 .518-.392.944-.895.999l-.11.006H31.28c-.518 0-.944-.392-.999-.895l-.006-.11v-5.674c0-.518.392-.944.895-.999l.11-.006h.914c-1.446-2.83-4.356-4.611-7.535-4.611-3.082 0-5.912 1.675-7.399 4.357l-.135.254h.914c.517 0 .944.392.998.895l.006.11v5.674c0 .518-.392.944-.895.999l-.11.006h-5.674c-.518 0-.944-.392-.999-.895l-.006-.11v-5.674c0-.518.392-.944.895-.999l.11-.006h2.561c.717-1.834 1.94-3.424 3.52-4.59l.3-.213h-4.282c-.438 1.609-1.858 2.745-3.508 2.832l-.199.006c-1.991 0-3.652-1.52-3.827-3.503-.176-1.983 1.193-3.771 3.152-4.12 1.894-.338 3.735.777 4.325 2.587l.057.19h20.392zm-17.822 8.82h-3.666v3.666h3.666V35.02zm18.916 0h-3.667v3.666h3.667V35.02zm2.611-9.65l-.142.007c-.945.073-1.69.863-1.69 1.827 0 1.012.82 1.833 1.832 1.833s1.833-.82 1.833-1.833c0-.964-.744-1.754-1.69-1.827l-.143-.006zm-27.804 0l-.143.007c-.946.073-1.69.863-1.69 1.827 0 1.012.82 1.833 1.832 1.833s1.833-.82 1.833-1.833c0-.964-.744-1.754-1.69-1.827l-.142-.006zM31.605 3.374v7.491c0 3.739 2.968 6.784 6.676 6.91l.238.004h7.492L31.605 3.373z"/>
    </g>
</svg>
