<svg xmlns="http://www.w3.org/2000/svg" width="80" height="80" viewBox="0 0 80 80">
    <g fill="none" fill-rule="evenodd">
        <g>
            <g>
                <path fill="#ffc107" d="M25.806 51.613c14.253 0 25.807-11.554 25.807-25.807C51.613 11.554 40.059 0 25.806 0 11.554 0 0 11.554 0 25.806 0 40.06 11.554 51.613 25.806 51.613z" opacity=".399" transform="translate(-680 -1408) translate(680 1408)"/>
                <path fill="#ffc107" fill-rule="nonzero" d="M38.826 17.13c1.44 0 2.609 1.168 2.609 2.61 0 1.44-1.168 2.608-2.609 2.608-1.136 0-2.102-.726-2.46-1.739h-5.083c2.381 1.676 3.963 4.411 4.06 7.52l36.396.001c4.24 0 7.691 3.37 7.822 7.578l.004.249v35.652c0 4.239-3.37 7.69-7.577 7.822l-.249.004H32.957c-4.24 0-7.691-3.37-7.823-7.578l-.004-.248V41.477l-1.956.001c-.288 0-.555-.142-.716-.375l-.062-.105-1.739-3.479c-.094-.188-.116-.403-.065-.604l.04-.119 4.348-10.435c.28-.674 1.198-.711 1.55-.112l.055.112 4.348 10.435c.081.194.088.41.023.607l-.048.116-1.739 3.479c-.129.257-.375.432-.656.472l-.122.008H26.87v30.13c0 3.286 2.603 5.963 5.86 6.083l.228.005h38.782c3.285 0 5.963-2.603 6.083-5.86l.004-.227V35.957c0-3.286-2.603-5.963-5.859-6.083l-.228-.004H35.347l.001 1.322c.964.341 1.667 1.232 1.734 2.295l.005.165c0 1.44-1.168 2.609-2.609 2.609-1.44 0-2.608-1.168-2.608-2.609 0-1.136.725-2.102 1.739-2.46v-2.757c0-3.519-2.322-6.495-5.517-7.48-.438.829-1.308 1.393-2.31 1.393-1.001 0-1.871-.565-2.308-1.393-3.12.961-5.407 3.821-5.514 7.231l-.003.249v2.757c1.013.358 1.739 1.325 1.739 2.46 0 1.44-1.168 2.609-2.609 2.609-1.44 0-2.609-1.168-2.609-2.609 0-1.135.726-2.102 1.739-2.46v-2.757c0-3.236 1.607-6.096 4.065-7.827l-5.083.001c-.358 1.013-1.324 1.739-2.46 1.739-1.44 0-2.609-1.168-2.609-2.609 0-1.44 1.168-2.609 2.61-2.609 1.135 0 2.101.726 2.46 1.74h8.122c.359-1.014 1.325-1.74 2.46-1.74 1.136 0 2.103.726 2.46 1.74h8.124c.358-1.014 1.324-1.74 2.46-1.74zM63.89 56.981c1.528 0 2.777 1.195 2.864 2.701l.005.17v8c0 1.527-1.194 2.776-2.7 2.864l-.17.005h-16c-1.528 0-2.777-1.195-2.864-2.701l-.005-.169v-8c0-1.528 1.195-2.777 2.701-2.865l.169-.005h16zm-8.001 7.864l-7.444 4.136h14.888l-7.444-4.136zm-9.126-5.07l-.004.076v8l.003.076 7.336-4.077-7.335-4.075zm18.255 0L57.68 63.85l7.336 4.076.004-.075v-8c0-.025 0-.05-.002-.076zm-1.685-1.055H48.445l7.444 4.136 7.444-4.136zm.557-20.739c1.528 0 2.777 1.195 2.864 2.701l.005.17v8c0 1.527-1.194 2.776-2.7 2.864l-.17.005h-8c-1.528 0-2.777-1.195-2.864-2.701l-.005-.169v-8c0-1.528 1.195-2.777 2.701-2.865l.169-.005h8zm-4.001 8.099l-3.901 3.901h7.802l-3.901-3.901zm5.131-5.131l-3.901 3.902 3.901 3.901v-7.803zm-10.261.001v7.801l3.901-3.9-3.901-3.901zm9.031-1.23h-7.802l3.901 3.901 3.901-3.901zm-38.878-8.679l-2.522 6.056 1.321 2.642h4.142l1.321-2.642-2.523-6.053.001 4.464c0 .48-.39.87-.87.87-.443 0-.809-.332-.862-.76l-.007-.11v-4.467zm-7.825 1.742c-.48 0-.87.389-.87.87 0 .48.39.869.87.869s.87-.39.87-.87-.39-.87-.87-.87zm17.391 0c-.48 0-.87.389-.87.87 0 .48.39.869.87.869s.87-.39.87-.87-.39-.87-.87-.87zM12.74 18.87c-.48 0-.87.389-.87.87 0 .48.39.869.87.869s.87-.39.87-.87-.39-.87-.87-.87zm26.087 0c-.48 0-.87.389-.87.87 0 .48.39.869.87.869s.87-.39.87-.87-.39-.87-.87-.87zm-13.043 0c-.48 0-.87.389-.87.87 0 .48.39.869.87.869s.87-.39.87-.87-.39-.87-.87-.87z" transform="translate(-680 -1408) translate(680 1408)"/>
            </g>
        </g>
    </g>
</svg>
