<svg xmlns="http://www.w3.org/2000/svg" width="80" height="80" viewBox="0 0 80 80">
    <g fill="none" fill-rule="evenodd">
        <path fill="#ffc107" d="M54.468 51.064C68.57 51.064 80 39.633 80 25.532S68.569 0 54.468 0c-14.1 0-25.532 11.431-25.532 25.532 0 14.1 11.431 25.532 25.532 25.532z" opacity=".399"/>
        <g stroke="#ffc107" stroke-width="1.702">
            <path stroke-linecap="round" stroke-linejoin="round" d="M44.767 6.809H64.17c.682 0 1.26.505 1.35 1.181l1.743 13.077c.397 2.982-1.697 5.722-4.68 6.12-.238.031-.478.047-.72.047h-14.79c-3.009 0-5.447-2.439-5.447-5.447 0-.24.015-.481.047-.72L43.417 7.99c.09-.676.667-1.181 1.35-1.181z" transform="translate(0 11.915)"/>
            <path d="M62.638 41.021H5.447c-1.27 0-2.418.515-3.25 1.346-.832.832-1.346 1.98-1.346 3.25v16.34c0 1.27.514 2.418 1.346 3.25.832.832 1.98 1.346 3.25 1.346h57.191c1.27 0 2.418-.514 3.25-1.346.832-.832 1.346-1.98 1.346-3.25v-16.34c0-1.27-.514-2.418-1.346-3.25-.832-.831-1.98-1.346-3.25-1.346z" transform="translate(0 11.915)"/>
            <path stroke-linecap="round" stroke-linejoin="round" d="M6.809 46.979L11.574 46.979M14.979 46.979L19.745 46.979M23.149 46.979L27.915 46.979M31.319 46.979L36.085 46.979M39.489 46.979L44.255 46.979M56.511 46.979L61.277 46.979M6.809 53.787L19.745 53.787M23.149 53.787L27.915 53.787M31.319 53.787L36.085 53.787M39.489 53.787L44.255 53.787M56.511 53.787L61.277 53.787M51.064 53.787L53.106 53.787M6.809 60.596L11.574 60.596M14.979 60.596L44.255 60.596M51.064 60.596L61.277 60.596M61.277 10.894V6.8C61.277 3.045 58.228 0 54.468 0c-3.76 0-6.808 3.045-6.808 6.801v4.093M23.149 40.17v-7.49c0-3.007-2.439-5.446-5.447-5.446h-4.085c-3.008 0-5.447-2.439-5.447-5.447v-1.361c0-3.009 2.439-5.447 5.447-5.447h9.532M34.723 14.979L39.489 14.979M26.553 14.979L31.319 14.979" transform="translate(0 11.915)"/>
        </g>
    </g>
</svg>
