<svg xmlns="http://www.w3.org/2000/svg" width="80" height="80" viewBox="0 0 80 80">
    <g fill="none" fill-rule="evenodd">
        <g>
            <g>
                <g>
                    <path fill="#EF5661" d="M53.859 79.075c13.926 0 25.216-11.29 25.216-25.216 0-13.927-11.29-25.217-25.216-25.217-13.927 0-25.217 11.29-25.217 25.217 0 13.926 11.29 25.216 25.217 25.216z" opacity=".399" transform="translate(-515 -381) translate(160 276) translate(355 105)"/>
                    <path fill="#424750" fill-rule="nonzero" d="M26.585 0c14.832 0 26.584 11.464 26.584 26.585 0 2.824-.799 6.125-2.238 9.676l-.069.012C51.882 36.093 52.93 36 54 36c9.941 0 18 8.059 18 18s-8.059 18-18 18c-8.457 0-15.552-5.832-17.482-13.694l-.059-.249-.292.308-.595.612C31.922 62.68 28.62 65 26.585 65c-3.172 0-9.317-4.866-14.825-11.56l-.295-.36-.584-.731C4.2 43.883 0 34.619 0 26.585 0 11.465 11.752 0 26.585 0zM54 38c-8.837 0-16 7.163-16 16s7.163 16 16 16 16-7.163 16-16-7.163-16-16-16zM26.585 2C12.845 2 2 12.58 2 26.585 2 34.09 6.024 42.964 12.45 51.11 17.8 57.889 24.086 63 26.586 63c1.696 0 5.43-2.985 9.48-7.48l-.018-.206C36.016 54.88 36 54.442 36 54c0-7.906 5.097-14.622 12.185-17.04l.318-.105c1.707-3.84 2.666-7.375 2.666-10.27C51.169 12.58 40.324 2 26.585 2zM65 53c.552 0 1 .448 1 1 0 .513-.386.936-.883.993L65 55H43c-.552 0-1-.448-1-1 0-.513.386-.936.883-.993L43 53h22zM26.585 11.831c8.148 0 14.753 6.605 14.753 14.754 0 8.148-6.605 14.753-14.753 14.753-8.149 0-14.754-6.605-14.754-14.753 0-8.149 6.605-14.754 14.754-14.754zm0 2c-7.044 0-12.754 5.71-12.754 12.754 0 7.043 5.71 12.753 12.754 12.753 7.043 0 12.753-5.71 12.753-12.753 0-7.044-5.71-12.754-12.753-12.754z" transform="translate(-515 -381) translate(160 276) translate(355 105)"/>
                </g>
            </g>
        </g>
    </g>
</svg>
