<svg xmlns="http://www.w3.org/2000/svg" width="81" height="81" viewBox="0 0 81 81">
    <g fill="none" fill-rule="evenodd">
        <path fill="#ffc107" d="M53.913 80C68.32 80 80 68.32 80 53.913S68.32 27.826 53.913 27.826s-26.087 11.68-26.087 26.087S39.506 80 53.913 80z" opacity=".399" transform="matrix(-1 0 0 1 80 1)"/>
        <path stroke="#ffc107" stroke-linecap="round" stroke-linejoin="round" stroke-width="1.739" d="M52.437 36.532c9.599-.335 17.652 7.175 17.987 16.774.335 9.6-7.174 17.653-16.774 17.988-9.37.327-17.266-6.82-17.95-16.09-.017-.227-.03-.455-.037-.684" transform="matrix(-1 0 0 1 80 1)"/>
        <path stroke="#ffc107" stroke-linecap="round" stroke-linejoin="round" stroke-width="1.739" d="M57.218 66.274c.726-.245 1.424-.552 2.087-.916.289-.158.572-.328.847-.507M65.561 57.59c.342-1.166.526-2.4.526-3.677 0-5.215-3.061-9.716-7.484-11.803M62.599 62.792c.686-.74 1.288-1.557 1.79-2.44M62.72 38.876c1.404-1.31 3.605-1.233 4.915.172l1.186 1.271c1.31 1.405 1.234 3.606-.171 4.916h0M53.043 56.522c1.441 0 2.61-1.168 2.61-2.609 0-1.44-1.169-2.609-2.61-2.609-1.44 0-2.608 1.168-2.608 2.609 0 1.44 1.168 2.609 2.608 2.609zM13.355 7.826h34.16c2.708 0 5.17 1.573 6.31 4.03l5.085 10.967c1.186 2.557.712 5.576-1.2 7.646L35.545 54.467c-2.607 2.822-7.008 2.997-9.83.39-.135-.125-.266-.255-.39-.39L3.16 30.469c-1.912-2.07-2.386-5.09-1.2-7.646l5.084-10.967c1.14-2.457 3.602-4.03 6.311-4.03z" transform="matrix(-1 0 0 1 80 1)"/>
        <path stroke="#ffc107" stroke-linecap="round" stroke-linejoin="round" stroke-width="1.739" d="M40 26.087l-8.676 30.572h-1.797l-8.734-30.572M9.82 9.221l10.973 16.866 9.661-18.26 9.661 18.26 11.063-17.06M8.26 0v3.376V0zM.87.87l2.387 2.387L.87.87zM3.408 8.26H.032h3.376zM1.472 26.087L59.437 26.087M53.043 51.304L53.043 41.373" transform="matrix(-1 0 0 1 80 1)"/>
    </g>
</svg>
