<svg xmlns="http://www.w3.org/2000/svg" width="249" height="26" viewBox="0 0 249 26">
    <g fill="none" fill-rule="evenodd">
        <path fill="#232933" fill-rule="nonzero" d="M197.273 23.251v2.125h-2.416V23.25h2.416zM150.859 0v12.088h14.802V0h2.526v25.344h-2.526V14.612h-14.802v10.732h-2.526V0h2.526zm-30.18 0v25.344h-2.527V14.612h-14.796v10.732l-2.527-.053V7.571c0-5.047 2.525-7.571 7.574-7.571h12.275zm71.29 0v25.344h-2.554V14.612H174.62v10.732l-2.532-.053V7.571c.007-5.047 2.534-7.571 7.58-7.571h12.301zm-47.536 0v2.524h-12.27c-3.684 0-5.053 1.456-5.053 5.048v10.206c0 3.59 1.358 5.042 5.053 5.042h9.743v-8.208h-5.053v-2.518h7.58v13.25h-12.27c-4.042 0-7.585-1.646-7.585-7.566V7.572C124.585 2.524 127.114 0 132.163 0h12.27zm66.109 12.088v1.32h-6.417c-1.926 0-2.631.763-2.631 2.63v5.352c0 1.872.71 2.629 2.631 2.629h6.417v1.325h-6.417c-2.105 0-3.963-.857-3.963-3.954v-5.337c0-2.647 1.321-3.968 3.963-3.965h6.417zm15.58 0v9.302c0 3.097-1.853 3.954-3.969 3.954h-5.042c-2.106 0-3.97-.857-3.97-3.954v-5.337c0-2.647 1.324-3.968 3.97-3.965h9.011zm15.374 0l.254.006h6.405v13.25h-1.32v-11.92h-5.096c-1.926 0-2.632.747-2.632 2.629v9.291h-1.326v-11.92h-5.1c-1.927 0-2.633.747-2.633 2.629v9.291l-1.326-.026v-9.26c.007-2.643 1.328-3.964 3.964-3.964h6.432v.715c.78-.51 1.7-.76 2.632-.715zm-20.2 1.32h-4.212c-1.931 0-2.631.763-2.631 2.63v5.352c0 1.872.715 2.629 2.631 2.629h5.043c1.937 0 2.632-.762 2.632-2.63v-7.97h-3.49l.026-.01zM118.151 2.524h-9.749c-3.684 0-5.047 1.456-5.047 5.048v4.522h14.796v-9.57zm71.263 0h-9.77c-3.689 0-5.047 1.456-5.047 5.048v4.522h14.817v-9.57z"/>
        <path fill="#E25098" d="M89.176 0c4.821 0 7.695 2.55 7.753 7.556v7.056H79.517v10.732h-3.88V0zM29.102 0v10.732H42.64V0h3.885v25.344H42.64V14.612H29.102v10.732h-3.884V0h3.884zm-7.784 0v3.88H7.774c-2.395 0-3.89 1.578-3.89 3.886v9.817c0 2.308 1.495 3.88 3.89 3.88h13.544v3.881H7.774c-4.89 0-7.774-2.613-7.774-7.76V7.765C0 2.63 2.884 0 7.774 0h13.544zm50.42 0v25.344h-3.885V14.612H54.31v10.732h-3.885V7.556C50.5 2.55 53.373 0 58.195 0h13.543zM89.16 3.875H79.5l.016 6.852h13.528V7.76c0-2.308-1.49-3.886-3.885-3.886zm-21.307 0h-9.659c-2.395 0-3.884 1.578-3.884 3.886v2.966h13.543V3.875z"/>
    </g>
</svg>
