<svg xmlns="http://www.w3.org/2000/svg" width="95" height="26" viewBox="0 0 95 26">
    <g fill="#FFF" fill-rule="evenodd">
        <path d="M28.81 16.122L28.81 6.687 32.264 6.687 32.256 19.581 28.81 19.581zM22.905.073h-1.71c-1.225.01-1.754.532-1.768 1.729v1.715h3.468V.073h.01zM0 .058h3.446v16.066H12.6v-3.753c.01-3.133 2.543-5.67 5.671-5.68h7.663v12.9H0V.058zm16.031 16.066h6.455v-5.988h-3.567c-1.593.007-2.883 1.3-2.888 2.896v3.092z"/>
        <path d="M18.529.056h-1.72c-1.235.01-1.766.549-1.78 1.742v1.727h3.488V.056h.012zM57.237 25.885H55.53c-1.226 0-1.753-.536-1.767-1.73v-1.714h3.467v3.444h.008zM52.81 25.91h-1.721c-1.234 0-1.765-.54-1.78-1.742V22.44h3.492v3.468h.009zM48.372 25.91H46.65c-1.234 0-1.766-.54-1.78-1.742V22.44h3.492v3.468h.009zM94.926 6.704H84.908c-4.208 0-6.692 2.529-6.843 6.373h3.44c.157-1.891 1.461-2.943 3.41-2.943h6.593v5.99h-19.08V.077h-3.422v19.508H94.94l-.014-12.881zM88.044 25.885h-1.709c-1.225 0-1.753-.536-1.767-1.73v-1.714h3.468v3.444h.008zM83.616 25.91h-1.72c-1.235 0-1.766-.54-1.78-1.742V22.44h3.492v3.468h.008zM79.178 25.91h-1.72c-1.235 0-1.766-.54-1.78-1.742V22.44h3.492v3.468h.008zM48.138 16.124H62.71v-5.988h3.422v9.445h-24.09c-4.267 0-6.856-2.679-6.844-6.883v-2.562h3.426v2.562c0 1.918 1.332 3.426 3.422 3.426h6.092zM37.104 3.517c1.095 0 1.566-.536 1.58-1.73V0H25.932c-.962 0-1.379.536-1.391 1.73v1.787h12.563z"/>
    </g>
</svg>
