<svg xmlns="http://www.w3.org/2000/svg" width="80" height="80" viewBox="0 0 80 80">
    <g fill="none" fill-rule="evenodd">
        <g>
            <g>
                <path fill="#4FCCE9" d="M53.087 79.478c14.407 0 26.087-11.68 26.087-26.087s-11.68-26.087-26.087-26.087S27 38.984 27 53.391C27 67.8 38.68 79.478 53.087 79.478z" opacity=".399" transform="translate(-380 -1408) translate(380 1408)"/>
                <path fill="#424750" fill-rule="nonzero" d="M44.564 37.136c.507 0 .926.383.983.875l.007.116v1.485h.99c1.582 0 2.876 1.237 2.966 2.796l.005.175v3.732l14.74 7.737c.218.115.385.304.471.531l.036.117 1.727 7.036c.08.329-.01.673-.237.917l-.091.087-7.354 6.17c-.26.219-.61.288-.928.193l-.119-.043-6.629-2.922c-.225-.1-.404-.277-.505-.498l-.044-.114-5.109-16.011h-2.89c-1.582 0-2.876-1.237-2.966-2.796l-.005-.175v-.99h-1.485c-.547 0-.99-.443-.99-.99 0-.508.382-.927.874-.984l.116-.007h1.485v-.99c0-1.582 1.237-2.876 2.796-2.966l.175-.005h.99v-1.485c0-.547.444-.99.99-.99zm4.91 11.416l7.192 8.306c.362.417.316 1.049-.101 1.41-.388.336-.96.321-1.33-.017l-.08-.084-7.635-8.815 4.83 15.137 5.646 2.49 6.402-5.371-1.471-5.994-13.454-7.062zM4.951 37.136c.507 0 .926.383.983.875l.007.116v1.485h.99c1.582 0 2.876 1.237 2.966 2.796l.005.175v.99h1.485c.547 0 .99.444.99.99 0 .508-.382.927-.874.984l-.116.007H9.903v.99c0 1.582-1.237 2.876-2.796 2.966l-.175.005H2.971c-1.582 0-2.876-1.237-2.966-2.796L0 46.544v-3.961c0-1.582 1.237-2.876 2.796-2.966l.175-.005h.99v-1.485c0-.547.444-.99.99-.99zm41.592 4.457h-3.961c-.508 0-.926.382-.984.875l-.006.115v3.961c0 .508.382.927.875.984l.115.007 2.258-.001-.665-2.088c-.26-.816.553-1.542 1.318-1.235l.1.046 1.94 1.018v-2.692c0-.547-.443-.99-.99-.99zm-39.612 0H2.971c-.508 0-.927.382-.984.875l-.006.115v3.961c0 .508.382.927.874.984l.116.007h3.961c.508 0 .927-.383.984-.875l.006-.116v-3.961c0-.547-.443-.99-.99-.99zm15.152 1.98c.547 0 .99.444.99.99 0 .508-.382.927-.875.984l-.115.007h-5.348c-.547 0-.99-.443-.99-.99 0-.508.382-.927.875-.984l.115-.007h5.348zm10.695 0c.547 0 .99.444.99.99 0 .508-.382.927-.875.984l-.115.007h-5.348c-.547 0-.99-.443-.99-.99 0-.508.382-.927.875-.984l.115-.007h5.348zm-8.021-30.7c6.563 0 11.883 5.321 11.883 11.885 0 6.563-5.32 11.883-11.883 11.883-6.564 0-11.884-5.32-11.884-11.883 0-6.564 5.32-11.884 11.884-11.884zm7.06 18.817H17.697c1.86 1.897 4.404 2.968 7.06 2.97 2.657-.002 5.202-1.073 7.061-2.97zM4.952 26.44c.507 0 .926.382.983.875l.007.115v5.348c0 .547-.444.99-.99.99-.508 0-.927-.382-.984-.875l-.007-.115v-5.348c0-.547.444-.99.99-.99zm39.612 0c.507 0 .926.382.983.875l.007.115v5.348c0 .547-.443.99-.99.99-.508 0-.927-.382-.984-.875l-.007-.115v-5.348c0-.547.444-.99.99-.99zM24.758 15.983l-7.27 13.726h14.538l-7.268-13.726zm-1.733-.97c-3.001.536-5.588 2.423-7.014 5.118-1.374 2.598-1.521 5.667-.413 8.377l.128.3 7.299-13.795zm3.466 0l7.298 13.795c1.245-2.782 1.14-5.983-.285-8.677-1.426-2.695-4.013-4.582-7.013-5.118zm-21.54.733c.508 0 .927.382.984.875l.007.115v5.348c0 .547-.444.99-.99.99-.508 0-.927-.382-.984-.875l-.007-.115v-5.348c0-.547.444-.99.99-.99zm39.613 0c.507 0 .926.382.983.875l.007.115v5.348c0 .547-.443.99-.99.99-.508 0-.927-.382-.984-.875l-.007-.115v-5.348c0-.547.444-.99.99-.99zM46.544 0c1.582 0 2.876 1.237 2.966 2.796l.005.175v3.961c0 1.582-1.237 2.876-2.796 2.966l-.175.005h-.99v1.485c0 .547-.443.99-.99.99-.508 0-.927-.382-.984-.874l-.007-.116V9.903h-.99c-1.582 0-2.876-1.237-2.966-2.796l-.005-.175v-.99h-1.485c-.547 0-.99-.444-.99-.99 0-.508.382-.927.874-.984l.116-.007h1.485v-.99c0-1.582 1.237-2.876 2.796-2.966L42.583 0h3.961zM6.932 0c1.582 0 2.876 1.237 2.966 2.796l.005.175v.99h1.485c.547 0 .99.444.99.99 0 .508-.382.927-.874.984l-.116.007H9.903v.99c0 1.582-1.237 2.876-2.796 2.966l-.175.005h-.99v1.485c0 .547-.444.99-.99.99-.508 0-.927-.382-.984-.874l-.007-.116V9.903h-.99C1.389 9.903.095 8.666.005 7.107L0 6.932V2.971C0 1.389 1.237.095 2.796.005L2.971 0h3.961zm39.612 1.98h-3.961c-.508 0-.926.383-.984.875l-.006.116v3.961c0 .508.382.927.875.984l.115.006h3.961c.508 0 .927-.382.984-.874l.007-.116V2.971c0-.547-.444-.99-.99-.99zm-39.612 0H2.971c-.508 0-.927.383-.984.875l-.006.116v3.961c0 .508.382.927.874.984l.116.006h3.961c.508 0 .927-.382.984-.874l.006-.116V2.971c0-.547-.443-.99-.99-.99zm15.152 1.981c.547 0 .99.444.99.99 0 .508-.382.927-.875.984l-.115.007h-5.348c-.547 0-.99-.444-.99-.99 0-.508.382-.927.875-.984l.115-.007h5.348zm10.695 0c.547 0 .99.444.99.99 0 .508-.382.927-.875.984l-.115.007h-5.348c-.547 0-.99-.444-.99-.99 0-.508.382-.927.875-.984l.115-.007h5.348z" transform="translate(-380 -1408) translate(380 1408)"/>
            </g>
        </g>
    </g>
</svg>
