<svg xmlns="http://www.w3.org/2000/svg" width="82" height="81" viewBox="0 0 82 81">
    <g fill="none" fill-rule="evenodd">
        <g>
            <g>
                <path fill="#ffc107" d="M53.913 80C68.32 80 80 68.32 80 53.913S68.32 27.826 53.913 27.826s-26.087 11.68-26.087 26.087S39.506 80 53.913 80z" opacity=".399" transform="translate(-979 -1407) translate(980 1408)"/>
                <path stroke="#ffc107" stroke-linecap="round" stroke-linejoin="round" stroke-width="1.739" d="M52.174 53.043h3.478c3.842 0 6.957 3.115 6.957 6.957v8.696c0 3.842-3.115 6.956-6.957 6.956h-3.478c-3.842 0-6.957-3.114-6.957-6.956V60c0-3.842 3.115-6.957 6.957-6.957z" transform="translate(-979 -1407) translate(980 1408)"/>
                <path stroke="#ffc107" stroke-linecap="round" stroke-linejoin="round" stroke-width="1.739" d="M53.913 61.913V40.977c0-3.074 2.492-5.566 5.565-5.566h14.118c3.074 0 5.565-2.491 5.565-5.565v-1.391c0-3.074-2.491-5.565-5.565-5.565H68.87h0" transform="translate(-979 -1407) translate(980 1408)"/>
                <g stroke="#ffc107" stroke-linecap="round" stroke-linejoin="round" stroke-width="1.739">
                    <path d="M6.957 0h34.782c3.842 0 6.957 3.115 6.957 6.957v35.652c0 3.842-3.115 6.956-6.957 6.956H6.957C3.115 49.565 0 46.451 0 42.61V6.957C0 3.115 3.115 0 6.957 0zM0 9.565L48.696 9.565" transform="translate(-979 -1407) translate(980 1408)"/>
                    <path d="M15.652 32.174v-3.478c0-4.803 3.893-8.696 8.696-8.696 4.802 0 8.695 3.893 8.695 8.696v3.478h0M13.043 20L35.652 20" transform="translate(-979 -1407) translate(980 1408)"/>
                    <path d="M24.348 26.957L28.696 37.391 26.957 40.87 21.739 40.87 20 37.391zM24.348 28.696L24.348 35.769M11.304 18.26c.96 0 1.74.78 1.74 1.74s-.78 1.74-1.74 1.74-1.739-.78-1.739-1.74.779-1.74 1.74-1.74zM15.652 32.174c.96 0 1.74.779 1.74 1.739 0 .96-.78 1.74-1.74 1.74s-1.739-.78-1.739-1.74.779-1.74 1.74-1.74zM33.043 32.174c.961 0 1.74.779 1.74 1.739 0 .96-.779 1.74-1.74 1.74-.96 0-1.739-.78-1.739-1.74s.779-1.74 1.74-1.74zM37.391 18.26c.96 0 1.74.78 1.74 1.74s-.78 1.74-1.74 1.74-1.739-.78-1.739-1.74.779-1.74 1.74-1.74z" transform="translate(-979 -1407) translate(980 1408)"/>
                    <path fill="#FFF" d="M24.348 18.26c.96 0 1.739.78 1.739 1.74s-.779 1.74-1.74 1.74c-.96 0-1.738-.78-1.738-1.74s.778-1.74 1.739-1.74z" transform="translate(-979 -1407) translate(980 1408)"/>
                    <path d="M5.217 5.217L7.826 5.217M11.304 5.217L13.913 5.217M17.391 5.217L20 5.217" transform="translate(-979 -1407) translate(980 1408)"/>
                </g>
                <path stroke="#ffc107" stroke-linecap="round" stroke-linejoin="round" stroke-width="1.739" d="M52.174 22.957L57.043 22.957M60.522 22.957L65.391 22.957" transform="translate(-979 -1407) translate(980 1408)"/>
            </g>
        </g>
    </g>
</svg>
