<svg xmlns="http://www.w3.org/2000/svg" width="80" height="80" viewBox="0 0 80 80">
    <g fill="none" fill-rule="evenodd">
        <path fill="#ffc107" d="M25.806 51.613c14.253 0 25.807-11.554 25.807-25.807C51.613 11.554 40.059 0 25.806 0 11.554 0 0 11.554 0 25.806 0 40.06 11.554 51.613 25.806 51.613z" opacity=".399"/>
        <path fill="#ffc107" fill-rule="nonzero" d="M25.807 9.149c6.458 0 12.057 3.676 14.82 9.049v-.068h4.416c.444 0 .81.332.863.76l.007.11v9.13h25.826c4.24 0 7.691 3.37 7.822 7.578l.004.249v35.652c0 4.239-3.37 7.69-7.577 7.822l-.249.004H36.848c-4.152 0-7.537-3.278-7.71-7.387l-.008-.247.001-29.676c-.92.186-1.868.297-2.837.324l-.487.007-.32-.003c-2.54-.048-4.941-.664-7.081-1.726L8.71 55.687c-.261.403-.8.518-1.203.257-.372-.242-.499-.719-.31-1.108l.053-.095 9.638-14.87c-4.653-2.954-7.74-8.15-7.74-14.068 0-9.198 7.457-16.654 16.66-16.654zm45.932 20.72H45.913v35c0 .444-.332.81-.76.863l-.11.007h-8.195c-3.302 0-5.978 2.677-5.978 5.978 0 3.227 2.556 5.857 5.754 5.975l.224.004h34.891c3.285 0 5.963-2.603 6.083-5.86l.004-.227V35.957c0-3.286-2.603-5.963-5.859-6.083l-.228-.004zM67 56.13c1.528 0 2.777 1.195 2.865 2.701l.005.169v8c0 1.528-1.195 2.777-2.701 2.865L67 69.87H51c-1.528 0-2.777-1.195-2.865-2.701L48.13 67v-8c0-1.528 1.195-2.777 2.701-2.865L51 56.13h16zm-8 7.864l-7.445 4.136h14.888L59 63.994zm9.128-5.07L60.79 63l7.336 4.076.004-.075v-8c0-.026 0-.05-.002-.076zm-18.255 0L49.87 59v8c0 .025 0 .05.002.076l7.336-4.077-7.335-4.075zm-5.7-39.055h-2.8c.703 1.843 1.088 3.843 1.088 5.934 0 7.432-4.869 13.727-11.59 15.87l-.002 25.164c1.367-1.673 3.423-2.761 5.734-2.833l.245-.004h7.325V19.869zm22.27 38H51.555L59 62.005l7.444-4.136zM67 37.13c1.528 0 2.777 1.195 2.865 2.701l.005.169v8c0 1.528-1.195 2.777-2.701 2.865L67 50.87h-8c-1.528 0-2.777-1.195-2.865-2.701L56.13 48v-8c0-1.528 1.195-2.777 2.701-2.865L59 37.13h8zm-4 8.099l-3.902 3.9H66.9l-3.9-3.9zm5.13-5.131L64.23 44l3.9 3.9v-7.802zm-10.26 0V47.9l3.9-3.9-3.9-3.901zm9.03-1.23h-7.802L63 42.77l3.901-3.901zM25.807 10.852c-8.262 0-14.956 6.694-14.956 14.952 0 8.151 6.524 14.78 14.635 14.948l.317.003.317-.003c8.115-.169 14.639-6.797 14.639-14.948 0-8.258-6.694-14.952-14.952-14.952z"/>
    </g>
</svg>
