<svg xmlns="http://www.w3.org/2000/svg" width="80" height="80" viewBox="0 0 80 80">
    <g fill="none" fill-rule="evenodd">
        <g>
            <g>
                <g>
                    <g>
                        <path fill="#ffc107" d="M53.532 69.064c14.1 0 25.532-11.431 25.532-25.532S67.633 18 53.532 18 28 29.431 28 43.532c0 14.1 11.431 25.532 25.532 25.532z" opacity=".399" transform="translate(-680 -1028) translate(160 830) translate(440 198) translate(80)"/>
                        <path fill="#ffc107" fill-rule="nonzero" d="M59.01.092c3.83.004 6.935 3.07 6.94 6.852v9.343c0 .55-.452.996-1.009.996H54.087v18.14l6-5.913c1.024-1.007 2.68-1.006 3.703.002l4.883 4.822c1.02 1.01 1.02 2.645.002 3.656L54.087 52.425v18.609c-.006 4.899-4.026 8.869-8.987 8.874-.143 0-.284-.004-.425-.01-.047.006-.093.01-.14.01H8.665c-.075 0-.15-.009-.224-.025-4.696-.34-8.332-4.2-8.339-8.85v-5.09c0-.549.452-.994 1.008-.994H9.5l.277-58.36c0-3.58 2.986-6.497 6.656-6.497zm-4.883 1.99H16.433c-2.542-.016-4.619 2.003-4.641 4.513l-.278 58.354h25.607c.557 0 1.008.445 1.008.995v5.09c0 3.802 3.121 6.884 6.971 6.884s6.971-3.082 6.971-6.884V54.42l-.277.274c-.24.238-.544.405-.876.48l-9.135 2.086c-.339.077-.694-.023-.94-.266-.246-.243-.348-.594-.27-.929l2.113-9.02c.076-.328.245-.628.486-.865l8.9-8.77V6.944c0-1.827.74-3.578 2.055-4.862zM36.114 66.94H2.119l-.001 4.095c.004 3.8 3.123 6.88 6.971 6.884h30.348c-2.102-1.683-3.324-4.212-3.323-6.884v-4.095zm8.188-17.96l-1.4 5.982 6.057-1.383-4.657-4.599zm14.214-15.108l-4.724 4.655-.001.001-8.62 8.495 5.77 5.698 13.318-13.178-5.743-5.671zM37.314 50.13c.557 0 1.008.446 1.008.996s-.451.995-1.008.995H19.54c-.556 0-1.008-.445-1.008-.995s.452-.995 1.008-.995zm5.88-8.342c.556 0 1.007.446 1.007.995 0 .55-.45.996-1.008.996H19.54c-.556 0-1.008-.446-1.008-.996s.452-.995 1.008-.995zm19.17-10.87c-.235-.232-.617-.232-.853 0l-1.569 1.545 5.74 5.668 1.565-1.549c.235-.233.235-.61 0-.843zm-19.17 2.527c.556 0 1.007.446 1.007.995 0 .55-.45.996-1.008.996H19.54c-.556 0-1.008-.446-1.008-.996s.452-.995 1.008-.995zm0-8.342c.556 0 1.007.446 1.007.996s-.45.995-1.008.995H19.54c-.556 0-1.008-.446-1.008-.995 0-.55.452-.996 1.008-.996zm-12.71-8.368c.556 0 1.008.446 1.008.995 0 .55-.452.996-1.008.996H19.539c-.556 0-1.008-.446-1.008-.996s.452-.995 1.008-.995zM59.01 2.082c-2.72 0-4.923 2.177-4.923 4.862v8.348h9.846V6.944c0-2.685-2.204-4.862-4.923-4.862z" transform="translate(-680 -1028) translate(160 830) translate(440 198) translate(80)"/>
                    </g>
                </g>
            </g>
        </g>
    </g>
</svg>
